<?xml version="1.0" standalone="no"?><svg xmlns="http://www.w3.org/2000/svg" viewBox="0 0 1440 320"><path fill="#50C878" fill-opacity="1" d="M0,160L30,149.3C60,139,120,117,180,128C240,139,300,181,360,197.3C420,213,480,203,540,192C600,181,660,171,720,181.3C780,192,840,224,900,218.7C960,213,1020,171,1080,176C1140,181,1200,235,1260,256C1320,277,1380,267,1410,261.3L1440,256L1440,320L1410,320C1380,320,1320,320,1260,320C1200,320,1140,320,1080,320C1020,320,960,320,900,320C840,320,780,320,720,320C660,320,600,320,540,320C480,320,420,320,360,320C300,320,240,320,180,320C120,320,60,320,30,320L0,320Z"></path></svg>